<svg fill="#8EA4B1" xmlns="http://www.w3.org/2000/svg" xmlns:xlink="http://www.w3.org/1999/xlink" version="1.1" x="0px" y="0px" viewBox="0 0 100 100" enable-background="new 0 0 100 100" xml:space="preserve"><metadata><?xpacket begin="&#65279;" id="W5M0MpCehiHzreSzNTczkc9d"?><x:xmpmeta xmlns:x="adobe:ns:meta/" x:xmptk="Adobe XMP Core 5.6-c011 79.156289, 2014/03/31-23:39:12        "></x:xmpmeta><?xpacket end="w"?></metadata><g><g><g><g><path d="M66.4,55c0,0,7.5,4.6,7.8,4.8c0.4,0.2,1.3,0.9,0.6,2c-0.7,1.1-1.8,0.5-2.1,0.3c-0.2-0.1-12.4-6-14.1-6.9      c-1.7-0.9-9.4-5.2-4.4-13.5c2.9-4.8,6.3-4,8.6-4c2.3,0,13.5,0.4,13.5,0.4s2.1-0.2,2.2,1.3c0,1-1.6,2-2.5,2.1      c-1.8,0.1-6.9,0.6-6.9,0.6S85.7,52.6,86,52.8c0.5,0.4,1,1.2,0.4,2.1c-0.6,0.9-1.6,0.9-2.1,0.6c-0.4-0.2-13.8-7.5-13.8-7.5l0,0      c0,0,15.3,9.3,15.6,9.5c0.9,0.5,1.1,1.4,0.6,2.3c-0.5,0.9-1.5,1-2.1,0.7c-0.4-0.2-16.3-8.8-16.3-8.8l0,0c0,0,11.2,6.8,11.6,7.1      c0.5,0.3,1.1,1.1,0.5,2.1c-0.6,1-1.7,0.7-2.1,0.5C78,61.3,66.4,55,66.4,55L66.4,55z"></path></g></g></g><g><g><g><path d="M33.6,55c0,0-7.5,4.6-7.8,4.8c-0.4,0.2-1.3,0.9-0.6,2c0.7,1.1,1.8,0.5,2.1,0.3c0.2-0.1,12.4-6,14.1-6.9      c1.7-0.9,9.4-5.2,4.4-13.5c-2.9-4.8-6.3-4-8.6-4c-2.3,0-13.5,0.4-13.5,0.4s-2.1-0.2-2.2,1.3c0,1,1.6,2,2.5,2.1      c1.8,0.1,6.9,0.6,6.9,0.6S14.3,52.6,14,52.8c-0.5,0.4-1,1.2-0.4,2.1c0.6,0.9,1.6,0.9,2.1,0.6c0.4-0.2,13.8-7.5,13.8-7.5l0,0      c0,0-15.3,9.3-15.6,9.5c-0.9,0.5-1.1,1.4-0.6,2.3c0.5,0.9,1.5,1,2.1,0.7c0.4-0.2,16.3-8.8,16.3-8.8l0,0c0,0-11.2,6.8-11.6,7.1      c-0.5,0.3-1.1,1.1-0.5,2.1c0.6,1,1.7,0.7,2.1,0.5C22,61.3,33.6,55,33.6,55L33.6,55z"></path></g></g></g></g></svg>